<svg xmlns="http://www.w3.org/2000/svg" viewBox="0 0 1024 1024">
  <defs>
    <linearGradient id="bird-gradient" x1="338" y1="230" x2="683" y2="781" gradientUnits="userSpaceOnUse">
      <stop offset="0" stop-color="#12d3ee"/>
      <stop offset="0.48" stop-color="#2275f6"/>
      <stop offset="1" stop-color="#4b1bd8"/>
    </linearGradient>
  </defs>
  <rect width="1024" height="1024" rx="180" fill="#f7f8fb"/>
  <g transform="translate(512 512) scale(0.62) translate(-512 -512)">
    <path
      fill="url(#bird-gradient)"
      d="M676 334h80l-55 45 55 24-62 14c-34 7-51 28-58 64-21 112-75 176-183 235l-110 61 75-126c-37-2-65-15-85-39-15-18-26-41-35-69l135 14c34 3 58 4 74 12-14-22-37-34-72-40l-105-19c-55-10-83-41-94-96l185 78c50 21 79 51 85 91 6-45-7-80-42-105l35-93c26-70 71-101 136-99 32 1 61 17 85 48z"
    />
    <circle cx="631" cy="358" r="27" fill="#fff"/>
    <path
      d="M769 319c32 36 45 82 34 132M824 294c45 59 59 124 34 193"
      fill="none"
      stroke="url(#bird-gradient)"
      stroke-width="24"
      stroke-linecap="round"
    />
  </g>
</svg>
